<svg width="16" height="16" viewBox="0 0 16 16" fill="none" xmlns="http://www.w3.org/2000/svg">
<mask id="mask0" mask-type="alpha" maskUnits="userSpaceOnUse" x="0" y="0" width="16" height="16">
<g clip-path="url(#clip0)">
<path d="M1.33333 13.3333H2.66667C3.03333 13.3333 3.33333 13.0333 3.33333 12.6666V6.66665C3.33333 6.29998 3.03333 5.99998 2.66667 5.99998H1.33333V13.3333ZM14.5533 8.58665C14.6267 8.41998 14.6667 8.23998 14.6667 8.05331V7.33331C14.6667 6.59998 14.0667 5.99998 13.3333 5.99998H9.66667L10.28 2.89998C10.3133 2.75331 10.2933 2.59331 10.2267 2.45998C10.0733 2.15998 9.88 1.88665 9.64 1.64665L9.33333 1.33331L5.06 5.60665C4.80667 5.85998 4.66667 6.19998 4.66667 6.55331V11.78C4.66667 12.6333 5.36667 13.3333 6.22667 13.3333H11.6333C12.1 13.3333 12.54 13.0866 12.78 12.6866L14.5533 8.58665Z" fill="black"/>
</g>
</mask>
<g mask="url(#mask0)">
<rect width="16" height="16" fill="#363732"/>
</g>
<defs>
<clipPath id="clip0">
<rect width="16" height="16" fill="white"/>
</clipPath>
</defs>
</svg>
