<svg width="16" height="16" viewBox="0 0 16 16" fill="none" xmlns="http://www.w3.org/2000/svg">
<mask id="mask0" mask-type="alpha" maskUnits="userSpaceOnUse" x="0" y="0" width="16" height="16">
<g clip-path="url(#clip0)">
<path d="M1.33337 13.3333H2.66671C3.03337 13.3333 3.33337 13.0333 3.33337 12.6667V6.66668C3.33337 6.30001 3.03337 6.00001 2.66671 6.00001H1.33337V13.3333ZM14.5534 8.58668C14.6267 8.42001 14.6667 8.24001 14.6667 8.05334V7.33334C14.6667 6.60001 14.0667 6.00001 13.3334 6.00001H9.66671L10.28 2.90001C10.3134 2.75334 10.2934 2.59334 10.2267 2.46001C10.0734 2.16001 9.88004 1.88668 9.64004 1.64668L9.33337 1.33334L5.06004 5.60668C4.80671 5.86001 4.66671 6.20001 4.66671 6.55334V11.78C4.66671 12.6333 5.36671 13.3333 6.22671 13.3333H11.6334C12.1 13.3333 12.54 13.0867 12.78 12.6867L14.5534 8.58668Z" fill="black"/>
</g>
</mask>
<g mask="url(#mask0)">
<rect width="16" height="16" fill="white"/>
</g>
<defs>
<clipPath id="clip0">
<rect width="16" height="16" fill="white"/>
</clipPath>
</defs>
</svg>
